<svg width="62" height="62" viewBox="0 0 62 62" fill="none" xmlns="http://www.w3.org/2000/svg">
<path d="M49.5488 4.78125C50.679 4.78127 51.7637 5.23049 52.5635 6.03027C53.3624 6.83007 53.8115 7.91394 53.8115 9.04492V42.6553C53.8114 43.7862 53.3624 44.871 52.5635 45.6699C51.7637 46.4696 50.6789 46.9189 49.5488 46.9189H26.501C21.3925 49.9235 14.4304 54.018 10.7354 56.1914C10.2129 56.4981 9.56574 56.5028 9.03906 56.2021C8.51317 55.9004 8.1875 55.3402 8.1875 54.7334V46.9189H4.26367C3.13274 46.9189 2.04796 46.4696 1.24902 45.6699C0.449297 44.871 8.1331e-05 43.7862 0 42.6553V9.04492C0 7.91391 0.449225 6.83007 1.24902 6.03027C2.04798 5.23047 3.13266 4.78125 4.26367 4.78125H49.5488Z" fill="url(#paint0_linear_487_11506)"/>
<path fill-rule="evenodd" clip-rule="evenodd" d="M32.5847 48.8598V55.3981C32.5847 56.353 33.3592 57.1275 34.314 57.1275H39.0142C39.9699 57.1275 40.7445 56.353 40.7445 55.3981V51.5997L56.8694 57.0163C58.056 57.4141 59.3623 57.2177 60.3779 56.487C61.3943 55.7563 61.9969 54.5806 61.9969 53.3291C61.9969 47.1835 61.9969 37.2109 61.9969 31.0645C61.9969 29.813 61.3943 28.6382 60.3779 27.9075C59.3623 27.1768 58.056 26.9796 56.8694 27.3782C49.1377 29.9748 34.77 34.8006 28.8537 36.7878C27.2701 37.3196 26.2031 38.8029 26.2031 40.4742V43.9203C26.2031 45.5907 27.2701 47.0748 28.8537 47.6066L32.5847 48.8598Z" fill="url(#paint1_radial_487_11506)"/>
<path fill-rule="evenodd" clip-rule="evenodd" d="M32.5859 48.8613V55.3996C32.5859 56.3545 33.3605 57.129 34.3153 57.129H39.0155C39.9712 57.129 40.7457 56.3545 40.7457 55.3996V51.6012L32.5859 48.8613Z" fill="#464A56"/>
<path fill-rule="evenodd" clip-rule="evenodd" d="M35.7486 23.4271C36.3301 23.7237 36.6959 24.3221 36.6959 24.9744C36.6959 25.6276 36.3301 26.2251 35.7486 26.5226C32.1406 28.3674 26.1771 31.4166 22.8035 33.1418C22.2649 33.4174 21.621 33.3929 21.1044 33.0769C20.5886 32.7609 20.2734 32.1987 20.2734 31.5936C20.2734 28.0219 20.2734 21.9278 20.2734 18.3561C20.2734 17.7509 20.5886 17.1888 21.1044 16.8728C21.621 16.5567 22.2649 16.5323 22.8035 16.8079C26.1771 18.533 32.1406 21.5822 35.7486 23.4271Z" fill="#F7B5B7"/>
<defs>
<linearGradient id="paint0_linear_487_11506" x1="26.9058" y1="4.78125" x2="26.9058" y2="56.4246" gradientUnits="userSpaceOnUse">
<stop stop-color="#E9292F"/>
<stop offset="1" stop-color="#83171A"/>
</linearGradient>
<radialGradient id="paint1_radial_487_11506" cx="0" cy="0" r="1" gradientUnits="userSpaceOnUse" gradientTransform="translate(44.1 47.6744) rotate(90) scale(42.7193 50.8973)">
<stop stop-color="#005FBF"/>
<stop offset="1" stop-color="#072358"/>
</radialGradient>
</defs>
</svg>
