<svg width="62" height="62" viewBox="0 0 62 62" fill="none" xmlns="http://www.w3.org/2000/svg">
<g clip-path="url(#clip0_1488_6802)">
<path d="M59.0441 47.7227L54.1456 48.3656L54.1456 48.3654L54.2061 48.3574C55.342 48.2078 56.1425 47.1666 55.9941 46.0294L53.7597 29.0052C53.6113 27.8693 52.5688 27.0687 51.4329 27.2184L46.6263 27.849L46.6607 27.8444C47.7971 27.6953 48.5973 26.6532 48.4482 25.5169L46.3168 9.27262C46.1676 8.13631 45.1256 7.33602 43.9893 7.48512L36.647 8.44853L29.4639 9.39106L22.1216 10.3545C20.9891 10.5031 20.191 11.5387 20.3332 12.6705L19.7362 8.12053C19.6476 7.44594 19.1987 6.87361 18.5641 6.62671L13.9841 4.84361C13.716 4.12539 13.1537 3.52063 12.3831 3.22012L4.67584 0.218782C1.22942 -1.12216 -0.792637 4.08469 2.64711 5.42717L10.3543 8.42852C11.1093 8.72098 11.9311 8.67194 12.6324 8.31505L16.1849 9.69913L20.9083 45.6928C17.9892 47.0544 15.9655 50.0146 15.9655 53.4474C15.9655 58.1707 19.7948 62 24.5169 62C28.7427 62 32.2528 58.9338 32.9436 54.905L59.5292 51.4174C61.9727 51.0948 61.4843 47.4035 59.0441 47.7227Z" fill="#494848"/>
<path d="M24.5621 44.8961H24.5172C23.2279 44.8961 22.0047 45.1817 20.9086 45.6929L16.1853 9.69926L12.6328 8.31518C13.9019 7.67394 14.4874 6.17605 13.9845 4.84375L18.5644 6.62685C19.1991 6.87374 19.648 7.44607 19.7365 8.12066L24.5621 44.8961Z" fill="#494848"/>
<path d="M24.5621 44.8961H24.5172C23.2279 44.8961 22.0047 45.1817 20.9086 45.6929L16.1853 9.69926L12.6328 8.31518C13.9019 7.67394 14.4874 6.17605 13.9845 4.84375L18.5644 6.62685C19.1991 6.87374 19.648 7.44607 19.7365 8.12066L24.5621 44.8961Z" fill="#8B8B8B"/>
<path d="M59.5333 51.4173L32.9477 54.9049C33.03 54.4311 33.0724 53.9448 33.0724 53.4473C33.0724 52.6592 32.9664 51.8961 32.7656 51.1717L59.0482 47.7227C61.4884 47.4035 61.9769 51.0947 59.5333 51.4173Z" fill="#494848"/>
<path d="M59.5333 51.4173L32.9477 54.9049C33.03 54.4311 33.0724 53.9448 33.0724 53.4473C33.0724 52.6592 32.9664 51.8961 32.7656 51.1717L59.0482 47.7227C61.4884 47.4035 61.9769 51.0947 59.5333 51.4173Z" fill="#8B8B8B"/>
<path d="M12.6324 8.31505C11.9311 8.67193 11.1093 8.72098 10.3543 8.42851L2.64711 5.42717C-0.792636 4.08469 1.22942 -1.12216 4.67584 0.21878L12.3831 3.22012C13.1537 3.52063 13.716 4.12539 13.9841 4.84362C14.4867 6.1749 13.9025 7.67334 12.6324 8.31505Z" fill="url(#paint0_radial_1488_6802)" fill-opacity="0.9"/>
<path d="M22.7344 30.984L51.4311 27.2192C52.5671 27.0695 53.6095 27.87 53.7579 29.006L55.9923 46.0302C56.1407 47.1674 55.3402 48.2086 54.2043 48.3582L32.7597 51.1713C31.7659 47.5689 28.4753 44.9167 24.56 44.8968H24.5587C22.7551 31.146 23.0933 33.7263 22.7344 30.984Z" fill="url(#paint1_linear_1488_6802)"/>
<path d="M46.657 27.8439L22.7318 30.9832L20.3304 12.6815C20.1813 11.5452 20.9816 10.5031 22.1179 10.354L43.9856 7.48467C45.1219 7.33557 46.1639 8.13586 46.313 9.27217L48.4445 25.5165C48.5936 26.6528 47.7933 27.6948 46.657 27.8439Z" fill="url(#paint2_linear_1488_6802)"/>
<path d="M41.6611 28.5L34.5703 29.4304L35.8068 38.8538L38.9849 35.5895L42.8976 37.9233L41.6611 28.5Z" fill="#D6E0EB"/>
<path d="M36.6441 8.44922L29.4609 9.39176L30.6674 18.5863L33.9006 15.3839L37.8506 17.6437L36.6441 8.44922Z" fill="#D6E0EB"/>
<path d="M33.0715 53.4479C33.0715 53.9454 33.0291 54.4317 32.9468 54.9055C32.256 58.9343 28.7459 62.0005 24.5201 62.0005C19.798 62.0005 15.9688 58.1712 15.9688 53.4479C15.9688 50.0151 17.9925 47.0549 20.9115 45.6933C22.0076 45.182 23.2308 44.8965 24.5201 44.8965H24.565C28.4804 44.9164 31.771 47.5686 32.7648 51.171V51.1722C32.9655 51.8967 33.0715 52.6598 33.0715 53.4479Z" fill="url(#paint3_radial_1488_6802)" fill-opacity="0.9"/>
<path d="M24.5172 57.3879C26.6927 57.3879 28.4562 55.6243 28.4562 53.4488C28.4562 51.2733 26.6927 49.5098 24.5172 49.5098C22.3417 49.5098 20.5781 51.2733 20.5781 53.4488C20.5781 55.6243 22.3417 57.3879 24.5172 57.3879Z" fill="#EE9D2B"/>
<path d="M28.4562 53.4484C28.4562 55.6231 26.6918 57.3875 24.5172 57.3875C22.3413 57.3875 20.5781 55.6231 20.5781 53.4484C20.5781 52.8474 20.7128 52.2776 20.9547 51.7676C21.2427 53.6604 22.8775 55.1094 24.8489 55.1094C26.4237 55.1094 27.7816 54.1866 28.4113 52.8512C28.4413 53.0457 28.4562 53.2452 28.4562 53.4484Z" fill="#DD8A26"/>
</g>
<defs>
<radialGradient id="paint0_radial_1488_6802" cx="0" cy="0" r="1" gradientUnits="userSpaceOnUse" gradientTransform="translate(7.51546 5.88098) rotate(90) scale(12.256 18.9072)">
<stop stop-color="#005FBF"/>
<stop offset="1" stop-color="#072358"/>
</radialGradient>
<linearGradient id="paint1_linear_1488_6802" x1="39.3722" y1="27.2012" x2="39.3722" y2="51.1713" gradientUnits="userSpaceOnUse">
<stop stop-color="#EE9D2B"/>
<stop offset="1" stop-color="#885A19"/>
</linearGradient>
<linearGradient id="paint2_linear_1488_6802" x1="34.3874" y1="7.4668" x2="34.3874" y2="30.9832" gradientUnits="userSpaceOnUse">
<stop stop-color="#E8292F"/>
<stop offset="1" stop-color="#82171A"/>
</linearGradient>
<radialGradient id="paint3_radial_1488_6802" cx="0" cy="0" r="1" gradientUnits="userSpaceOnUse" gradientTransform="translate(24.5201 56.5669) rotate(90) scale(24.3212 24.3195)">
<stop stop-color="#005FBF"/>
<stop offset="1" stop-color="#072358"/>
</radialGradient>
<clipPath id="clip0_1488_6802">
<rect width="62" height="62" fill="white"/>
</clipPath>
</defs>
</svg>
