<svg width="62" height="62" viewBox="0 0 62 62" fill="none" xmlns="http://www.w3.org/2000/svg">
<g clip-path="url(#clip0_1488_7904)">
<path d="M18.3878 21H7.61218C7.27404 21 7 21.1632 7 21.3646V25.6354C7 25.8368 7.27404 26 7.61218 26H18.3878C18.726 26 19 25.8368 19 25.6354V21.3646C19 21.1632 18.726 21 18.3878 21Z" fill="url(#paint0_radial_1488_7904)"/>
<path d="M43.5 0C42.6715 0 42 0.444953 42 0.993954V11.006C42 11.555 42.6715 12 43.5 12C44.3285 12 45 11.555 45 11.006V0.993954C45 0.445083 44.3285 0 43.5 0Z" fill="#2D5872"/>
<path d="M45.0387 15H41.9613C41.4304 15 41 14.5114 41 13.9088V10.0912C41 9.48856 41.4304 9 41.9613 9H45.0387C45.5696 9 46 9.48856 46 10.0912V13.9088C46 14.5114 45.5696 15 45.0387 15Z" fill="#FF4C4C"/>
<path d="M49.9896 26H37.0105C36.4524 26 36 25.5406 36 24.974V15.026C36 14.4593 36.4524 14 37.0105 14H49.9896C50.5477 14 51 14.4594 51 15.026V24.974C51 25.5406 50.5477 26 49.9896 26Z" fill="#F33A3A"/>
<path d="M55 62H31V19H54.4107C54.7362 19 55 19.26 55 19.5808V62Z" fill="url(#paint1_linear_1488_7904)"/>
<path d="M50.1277 29.4218H36.6453C36.1681 29.4218 35.7812 29.0348 35.7812 28.5577V26.5594C35.7812 26.0821 36.1682 25.6953 36.6453 25.6953H50.1277C50.6049 25.6953 50.9917 26.0823 50.9917 26.5594V28.5577C50.9917 29.0348 50.6049 29.4218 50.1277 29.4218Z" fill="#E1EFFB"/>
<path d="M50.1277 37.9648H36.6453C36.1681 37.9648 35.7812 37.5778 35.7812 37.1007V35.1024C35.7812 34.6251 36.1682 34.2383 36.6453 34.2383H50.1277C50.6049 34.2383 50.9917 34.6252 50.9917 35.1024V37.1007C50.9917 37.5778 50.6049 37.9648 50.1277 37.9648Z" fill="#E1EFFB"/>
<path d="M50.1277 46.5077H36.6453C36.1681 46.5077 35.7812 46.1208 35.7812 45.6437V43.6453C35.7812 43.1681 36.1682 42.7812 36.6453 42.7812H50.1277C50.6049 42.7812 50.9917 43.1682 50.9917 43.6453V45.6437C50.9917 46.1208 50.6049 46.5077 50.1277 46.5077Z" fill="#E1EFFB"/>
<path d="M50.1277 55.0546H36.6453C36.1681 55.0546 35.7812 54.6677 35.7812 54.1905V52.1922C35.7812 51.7149 36.1682 51.3281 36.6453 51.3281H50.1277C50.6049 51.3281 50.9917 51.7151 50.9917 52.1922V54.1905C50.9917 54.6678 50.6049 55.0546 50.1277 55.0546Z" fill="#E1EFFB"/>
<path d="M37.3216 62H4.67842C4.30369 62 4 61.6958 4 61.3205V26.6795C4 26.3042 4.30369 26 4.67842 26H37.3216C37.6963 26 38 26.3042 38 26.6795V61.3206C38 61.6958 37.6963 62 37.3216 62Z" fill="url(#paint2_radial_1488_7904)"/>
<path d="M12.7306 35.8037H8.44829C8.07127 35.8037 7.76562 35.498 7.76562 35.121V32.3936C7.76562 32.0166 8.07127 31.7109 8.44829 31.7109H12.7306C13.1076 31.7109 13.4133 32.0166 13.4133 32.3936V35.121C13.4133 35.498 13.1076 35.8037 12.7306 35.8037Z" fill="#E1EFFB"/>
<path d="M22.6993 35.8037H18.417C18.04 35.8037 17.7344 35.498 17.7344 35.121V32.3936C17.7344 32.0166 18.04 31.7109 18.417 31.7109H22.6993C23.0764 31.7109 23.382 32.0166 23.382 32.3936V35.121C23.382 35.498 23.0764 35.8037 22.6993 35.8037Z" fill="#E1EFFB"/>
<path d="M32.6681 35.8037H28.3858C28.0088 35.8037 27.7031 35.498 27.7031 35.121V32.3936C27.7031 32.0166 28.0088 31.7109 28.3858 31.7109H32.6681C33.0451 31.7109 33.3508 32.0166 33.3508 32.3936V35.121C33.3508 35.498 33.0451 35.8037 32.6681 35.8037Z" fill="#E1EFFB"/>
<path d="M12.7306 45.374H8.44829C8.07127 45.374 7.76562 45.0683 7.76562 44.6913V41.9639C7.76562 41.5869 8.07127 41.2812 8.44829 41.2812H12.7306C13.1076 41.2812 13.4133 41.5869 13.4133 41.9639V44.6913C13.4133 45.0683 13.1076 45.374 12.7306 45.374Z" fill="#E1EFFB"/>
<path d="M22.6993 45.374H18.417C18.04 45.374 17.7344 45.0683 17.7344 44.6913V41.9639C17.7344 41.5869 18.04 41.2812 18.417 41.2812H22.6993C23.0764 41.2812 23.382 41.5869 23.382 41.9639V44.6913C23.382 45.0683 23.0764 45.374 22.6993 45.374Z" fill="#E1EFFB"/>
<path d="M32.6681 45.374H28.3858C28.0088 45.374 27.7031 45.0683 27.7031 44.6913V41.9639C27.7031 41.5869 28.0088 41.2812 28.3858 41.2812H32.6681C33.0451 41.2812 33.3508 41.5869 33.3508 41.9639V44.6913C33.3508 45.0683 33.0451 45.374 32.6681 45.374Z" fill="#E1EFFB"/>
<path d="M12.7306 54.9482H8.44829C8.07127 54.9482 7.76562 54.6425 7.76562 54.2655V51.5381C7.76562 51.1611 8.07127 50.8555 8.44829 50.8555H12.7306C13.1076 50.8555 13.4133 51.1611 13.4133 51.5381V54.2655C13.4133 54.6425 13.1076 54.9482 12.7306 54.9482Z" fill="#E1EFFB"/>
<path d="M22.6993 54.9482H18.417C18.04 54.9482 17.7344 54.6425 17.7344 54.2655V51.5381C17.7344 51.1611 18.04 50.8555 18.417 50.8555H22.6993C23.0764 50.8555 23.382 51.1611 23.382 51.5381V54.2655C23.382 54.6425 23.0764 54.9482 22.6993 54.9482Z" fill="#E1EFFB"/>
<path d="M32.6681 54.9482H28.3858C28.0088 54.9482 27.7031 54.6425 27.7031 54.2655V51.5381C27.7031 51.1611 28.0088 50.8555 28.3858 50.8555H32.6681C33.0451 50.8555 33.3508 51.1611 33.3508 51.5381V54.2655C33.3508 54.6425 33.0451 54.9482 32.6681 54.9482Z" fill="#E1EFFB"/>
<path d="M59.3821 59.1562H2.62537C1.83983 59.1562 1.20312 59.793 1.20312 60.5785C1.20312 61.364 1.83983 62.0007 2.62537 62.0007H59.3823C60.1678 62.0007 60.8045 61.364 60.8045 60.5785C60.8044 59.7931 60.1677 59.1562 59.3821 59.1562Z" fill="#2D5872"/>
</g>
<defs>
<radialGradient id="paint0_radial_1488_7904" cx="0" cy="0" r="1" gradientUnits="userSpaceOnUse" gradientTransform="translate(13 24.4116) rotate(90) scale(7.10981 17.0635)">
<stop stop-color="#005FBF"/>
<stop offset="1" stop-color="#072358"/>
</radialGradient>
<linearGradient id="paint1_linear_1488_7904" x1="43" y1="19" x2="43" y2="62" gradientUnits="userSpaceOnUse">
<stop stop-color="#E9292F"/>
<stop offset="1" stop-color="#83171A"/>
</linearGradient>
<radialGradient id="paint2_radial_1488_7904" cx="0" cy="0" r="1" gradientUnits="userSpaceOnUse" gradientTransform="translate(21 50.5635) rotate(90) scale(51.1906 48.3467)">
<stop stop-color="#005FBF"/>
<stop offset="1" stop-color="#072358"/>
</radialGradient>
<clipPath id="clip0_1488_7904">
<rect width="62" height="62" fill="white"/>
</clipPath>
</defs>
</svg>
