<svg width="53" height="55" viewBox="0 0 53 55" fill="none" xmlns="http://www.w3.org/2000/svg">
<path d="M20.3438 20.3438H3.875L5.25026 15.7596C5.69278 14.2845 6.59908 12.9913 7.83467 12.072C9.07026 11.1527 10.5693 10.6562 12.1094 10.6563C13.6494 10.6562 15.1485 11.1527 16.3841 12.072C17.6197 12.9913 18.526 14.2845 18.9685 15.7596L20.3438 20.3438Z" fill="#A3612D"/>
<path d="M14.5312 17.4375H9.6875C9.43057 17.4375 9.18417 17.3354 9.00249 17.1538C8.82081 16.9721 8.71875 16.7257 8.71875 16.4688C8.71875 16.2118 8.82081 15.9654 9.00249 15.7837C9.18417 15.6021 9.43057 15.5 9.6875 15.5H14.5312C14.7882 15.5 15.0346 15.6021 15.2163 15.7837C15.3979 15.9654 15.5 16.2118 15.5 16.4688C15.5 16.7257 15.3979 16.9721 15.2163 17.1538C15.0346 17.3354 14.7882 17.4375 14.5312 17.4375Z" fill="#7D4A21"/>
<path d="M42.625 8.71875H31L33.9062 3.875H45.5312L42.625 8.71875Z" fill="#EAE9E4"/>
<path d="M43.6204 49.4062H8.69211C7.62957 49.4062 6.60361 49.0182 5.80705 48.315C5.0105 47.6118 4.49818 46.6419 4.3664 45.5876L1.9375 26.1562H50.375L47.9461 45.5876C47.8143 46.6419 47.302 47.6118 46.5054 48.315C45.7089 49.0182 44.6829 49.4062 43.6204 49.4062Z" fill="url(#paint0_linear_1538_6705)"/>
<path d="M0 21.3438C0 20.7915 0.447715 20.3438 1 20.3438H51.3125C51.8648 20.3438 52.3125 20.7915 52.3125 21.3438V25.1562C52.3125 25.7085 51.8648 26.1562 51.3125 26.1562H0.999999C0.447714 26.1562 0 25.7085 0 25.1562V21.3438Z" fill="#C11425"/>
<path d="M28.0938 31.9688C28.0938 30.8987 27.2263 30.0312 26.1562 30.0312C25.0862 30.0312 24.2188 30.8987 24.2188 31.9688V43.5938C24.2188 44.6638 25.0862 45.5312 26.1562 45.5312C27.2263 45.5312 28.0938 44.6638 28.0938 43.5938V31.9688Z" fill="#B22122"/>
<path d="M20.3438 31.9688C20.3438 30.8987 19.4763 30.0312 18.4062 30.0312C17.3362 30.0312 16.4688 30.8987 16.4688 31.9688V43.5938C16.4688 44.6638 17.3362 45.5312 18.4062 45.5312C19.4763 45.5312 20.3438 44.6638 20.3438 43.5938V31.9688Z" fill="#B22122"/>
<path d="M35.8438 31.9688C35.8438 30.8987 34.9763 30.0312 33.9062 30.0312C32.8362 30.0312 31.9688 30.8987 31.9688 31.9688V43.5938C31.9688 44.6638 32.8362 45.5312 33.9062 45.5312C34.9763 45.5312 35.8438 44.6638 35.8438 43.5938V31.9688Z" fill="#B22122"/>
<path d="M43.5938 31.9688C43.5938 30.8987 42.7263 30.0312 41.6562 30.0312C40.5862 30.0312 39.7188 30.8987 39.7188 31.9688V43.5938C39.7188 44.6638 40.5862 45.5312 41.6562 45.5312C42.7263 45.5312 43.5938 44.6638 43.5938 43.5938V31.9688Z" fill="#B22122"/>
<path d="M12.5938 31.9688C12.5938 30.8987 11.7263 30.0312 10.6562 30.0312C9.5862 30.0312 8.71875 30.8987 8.71875 31.9688V43.5938C8.71875 44.6638 9.5862 45.5312 10.6562 45.5312C11.7263 45.5312 12.5938 44.6638 12.5938 43.5938V31.9688Z" fill="#B22122"/>
<path d="M31 8.71875H42.625V20.3438H31V8.71875Z" fill="#DCDBD6"/>
<path d="M42.625 8.71875L45.5312 3.875L48.4375 8.71875V20.3438H42.625V8.71875Z" fill="#CDCCC8"/>
<path d="M33.9062 0H45.5312V3.875H33.9062V0Z" fill="#DCDBD6"/>
<path d="M31 20.3438H19.375V13.6658C19.375 12.7116 19.5629 11.7668 19.9281 10.8853C20.2932 10.0038 20.8284 9.20283 21.5031 8.52815L22.2812 7.75V5.8125H28.0938V7.75L28.8719 8.52815C29.5466 9.20283 30.0818 10.0038 30.4469 10.8853C30.8121 11.7668 31 12.7116 31 13.6658V20.3438Z" fill="url(#paint1_radial_1538_6705)" fill-opacity="0.9"/>
<path d="M30.9988 13.5625H27.125C26.8681 13.5625 26.6217 13.4604 26.44 13.2788C26.2583 13.0971 26.1562 12.8507 26.1562 12.5938C26.1562 12.3368 26.2583 12.0904 26.44 11.9087C26.6217 11.7271 26.8681 11.625 27.125 11.625H30.707C30.8917 12.2546 30.9899 12.9064 30.9988 13.5625Z" fill="#043F86"/>
<path d="M31 15.5V17.4375H27.125C26.8681 17.4375 26.6217 17.3354 26.44 17.1538C26.2583 16.9721 26.1562 16.7257 26.1562 16.4688C26.1562 16.2118 26.2583 15.9654 26.44 15.7837C26.6217 15.6021 26.8681 15.5 27.125 15.5H31Z" fill="#043F86"/>
<path d="M21.3125 1.9375H29.0625V5.8125H21.3125V1.9375Z" fill="#DCDBD6"/>
<path d="M25.7738 23.1479C25.3437 23.148 24.9232 23.0207 24.5653 22.7821L3.92355 9.02126C2.1821 7.86021 2.79399 5.16273 4.86603 4.86665C5.42779 4.78644 5.99927 4.91856 6.46882 5.2372L26.997 19.1667C28.7731 20.3719 27.9201 23.1479 25.7738 23.1479Z" fill="#B22122"/>
<path d="M42.625 12.5938L31 20.3438H42.625V12.5938Z" fill="#0253A8"/>
<path d="M42.625 12.5938H48.4375V20.3438H42.625V12.5938Z" fill="#043F86"/>
<path d="M12.5938 54.25C11.8273 54.25 11.0782 54.0227 10.4409 53.5969C9.80368 53.1712 9.30701 52.566 9.01372 51.8579C8.72043 51.1498 8.64369 50.3707 8.79321 49.619C8.94273 48.8674 9.31179 48.1769 9.85371 47.635C10.3956 47.093 11.0861 46.724 11.8378 46.5745C12.5895 46.4249 13.3686 46.5017 14.0767 46.795C14.7847 47.0883 15.3899 47.5849 15.8157 48.2222C16.2415 48.8594 16.4688 49.6086 16.4688 50.375C16.4676 51.4024 16.059 52.3873 15.3325 53.1138C14.6061 53.8402 13.6211 54.2488 12.5938 54.25ZM12.5938 48.4375C12.2106 48.4375 11.836 48.5511 11.5173 48.764C11.1987 48.9769 10.9504 49.2795 10.8037 49.6336C10.6571 49.9876 10.6187 50.3772 10.6935 50.753C10.7682 51.1288 10.9528 51.4741 11.2237 51.745C11.4947 52.016 11.8399 52.2005 12.2158 52.2753C12.5916 52.35 12.9812 52.3117 13.3352 52.165C13.6892 52.0184 13.9918 51.77 14.2047 51.4514C14.4176 51.1328 14.5313 50.7582 14.5313 50.375C14.5306 49.8613 14.3263 49.3689 13.9631 49.0057C13.5999 48.6424 13.1074 48.4381 12.5938 48.4375Z" fill="#C11425"/>
<path d="M38.75 54.25C37.9836 54.25 37.2344 54.0227 36.5972 53.5969C35.9599 53.1712 35.4633 52.566 35.17 51.8579C34.8767 51.1498 34.7999 50.3707 34.9495 49.619C35.099 48.8674 35.468 48.1769 36.01 47.635C36.5519 47.093 37.2424 46.724 37.994 46.5745C38.7457 46.4249 39.5248 46.5017 40.2329 46.795C40.941 47.0883 41.5462 47.5849 41.9719 48.2222C42.3977 48.8594 42.625 49.6086 42.625 50.375C42.6238 51.4024 42.2152 52.3873 41.4888 53.1138C40.7623 53.8402 39.7774 54.2488 38.75 54.25ZM38.75 48.4375C38.3668 48.4375 37.9922 48.5511 37.6736 48.764C37.355 48.9769 37.1066 49.2795 36.96 49.6336C36.8133 49.9876 36.775 50.3772 36.8497 50.753C36.9245 51.1288 37.109 51.4741 37.38 51.745C37.6509 52.016 37.9962 52.2005 38.372 52.2753C38.7479 52.35 39.1374 52.3117 39.4915 52.165C39.8455 52.0184 40.1481 51.77 40.361 51.4514C40.5739 51.1328 40.6875 50.7582 40.6875 50.375C40.6869 49.8613 40.4826 49.3689 40.1194 49.0057C39.7561 48.6424 39.2637 48.4381 38.75 48.4375Z" fill="#C11425"/>
<path d="M22.2812 5.8125H28.0938V6.78125H22.2812V5.8125Z" fill="#043F86"/>
<defs>
<linearGradient id="paint0_linear_1538_6705" x1="26.1562" y1="26.1562" x2="26.1562" y2="49.4062" gradientUnits="userSpaceOnUse">
<stop stop-color="#E9292F"/>
<stop offset="1" stop-color="#C52227"/>
</linearGradient>
<radialGradient id="paint1_radial_1538_6705" cx="0" cy="0" r="1" gradientUnits="userSpaceOnUse" gradientTransform="translate(25.1875 15.7275) rotate(90) scale(20.6629 16.5303)">
<stop stop-color="#005FBF"/>
<stop offset="1" stop-color="#072358"/>
</radialGradient>
</defs>
</svg>
