<svg width="40" height="24" viewBox="0 0 40 24" fill="none" xmlns="http://www.w3.org/2000/svg">
<path d="M27.1688 0H21.8C21.3 0 20.8188 0.1875 20.45 0.525L14.3062 6.15C14.3 6.15625 14.2938 6.16875 14.2875 6.175C13.25 7.15 13.2688 8.70625 14.1562 9.675C14.95 10.5437 16.6187 10.775 17.6625 9.84375C17.6688 9.8375 17.6812 9.8375 17.6875 9.83125L22.6812 5.25625C23.0875 4.8875 23.725 4.9125 24.0938 5.31875C24.4688 5.725 24.4375 6.35625 24.0312 6.73125L22.4 8.225L31.5 15.6125C31.6812 15.7625 31.8438 15.925 31.9937 16.0938V4L28.5812 0.5875C28.2125 0.2125 27.7 0 27.1688 0ZM34 4.0125V18.0063C34 19.1125 34.8937 20.0063 36 20.0063H40V4.0125H34ZM37 18.0063C36.45 18.0063 36 17.5562 36 17.0063C36 16.4563 36.45 16.0063 37 16.0063C37.55 16.0063 38 16.4563 38 17.0063C38 17.5562 37.55 18.0063 37 18.0063ZM0 20H4C5.10625 20 6 19.1063 6 18V4.0125H0V20ZM3 16.0063C3.55 16.0063 4 16.4563 4 17.0063C4 17.5562 3.55 18.0063 3 18.0063C2.45 18.0063 2 17.5562 2 17.0063C2 16.45 2.45 16.0063 3 16.0063ZM30.2437 17.1688L20.9125 9.59375L19.0375 11.3125C17.1812 13.0063 14.3375 12.8438 12.6812 11.0375C11 9.2 11.1313 6.35625 12.9563 4.68125L18.0688 0H12.8313C12.3 0 11.7937 0.2125 11.4187 0.5875L8 4V17.9937H9.14375L14.8 23.1125C16.5125 24.5062 19.0312 24.2437 20.425 22.5312L20.4375 22.5187L21.5562 23.4875C22.55 24.3 24.0188 24.1437 24.825 23.15L26.7875 20.7375L27.125 21.0125C27.9813 21.7063 29.2437 21.5812 29.9375 20.7188L30.5312 19.9875C31.2313 19.125 31.1 17.8688 30.2437 17.1688Z" fill="#1A4174"/>
</svg>
