<svg width="35" height="35" viewBox="0 0 35 35" fill="none" xmlns="http://www.w3.org/2000/svg">
<path d="M34.8159 0.474493C34.8017 0.405397 34.768 0.341799 34.7189 0.291154C34.6697 0.24051 34.6072 0.204918 34.5386 0.188551C29.9627 -0.930217 19.3899 3.05657 13.6617 8.78244C12.64 9.79586 11.7086 10.8964 10.878 12.0716C9.1116 11.9153 7.34516 12.0458 5.83967 12.702C1.59195 14.5716 0.355207 19.4498 0.0106706 21.5483C-0.00887219 21.6631 -0.00150065 21.781 0.0322052 21.8925C0.065911 22.004 0.125032 22.1062 0.204918 22.191C0.284805 22.2758 0.383278 22.3409 0.492593 22.3812C0.601907 22.4215 0.719083 22.4359 0.834903 22.4233L7.65611 21.6709C7.66096 22.1852 7.692 22.6989 7.74908 23.21C7.7834 23.565 7.94096 23.8967 8.1944 24.1475L10.8358 26.7827C11.087 27.0358 11.4185 27.1933 11.7734 27.2281C12.2816 27.2848 12.7924 27.3159 13.3039 27.321L12.5554 34.1336C12.5429 34.2494 12.5574 34.3665 12.5978 34.4758C12.6382 34.585 12.7033 34.6834 12.788 34.7632C12.8728 34.8431 12.9749 34.9022 13.0864 34.936C13.1978 34.9698 13.3156 34.9772 13.4304 34.9579C15.525 34.6219 20.4118 33.3852 22.2704 29.1375C22.9267 27.632 23.061 25.8741 22.9095 24.1163C24.0875 23.2857 25.1909 22.354 26.2072 21.3319C31.9534 15.6146 35.9175 5.2777 34.8159 0.474493ZM20.4743 14.5114C19.9496 13.9871 19.5922 13.3189 19.4473 12.5914C19.3024 11.8639 19.3765 11.1097 19.6603 10.4244C19.944 9.73898 20.4247 9.15316 21.0414 8.74099C21.6582 8.32882 22.3833 8.10882 23.1251 8.10882C23.8669 8.10882 24.592 8.32882 25.2088 8.74099C25.8255 9.15316 26.3062 9.73898 26.5899 10.4244C26.8737 11.1097 26.9478 11.8639 26.8029 12.5914C26.658 13.3189 26.3006 13.9871 25.7759 14.5114C25.428 14.8599 25.0148 15.1363 24.5599 15.3249C24.1051 15.5135 23.6175 15.6106 23.1251 15.6106C22.6327 15.6106 22.1451 15.5135 21.6903 15.3249C21.2354 15.1363 20.8222 14.8599 20.4743 14.5114Z" fill="#1A4174"/>
</svg>
