<svg width="40" height="40" viewBox="0 0 40 40" fill="none" xmlns="http://www.w3.org/2000/svg">
<path d="M2.86719 16.582C2.86719 17.1183 2.97281 17.6492 3.17801 18.1447C3.38322 18.6401 3.684 19.0902 4.06317 19.4694C4.44234 19.8486 4.89248 20.1493 5.3879 20.3545C5.88331 20.5597 6.41429 20.6654 6.95052 20.6654C7.48675 20.6654 8.01773 20.5597 8.51314 20.3545C9.00856 20.1493 9.4587 19.8486 9.83787 19.4694C10.217 19.0902 10.5178 18.6401 10.723 18.1447C10.9282 17.6492 11.0339 17.1183 11.0339 16.582C11.0339 16.0458 10.9282 15.5148 10.723 15.0194C10.5178 14.524 10.217 14.0739 9.83787 13.6947C9.4587 13.3155 9.00856 13.0147 8.51314 12.8095C8.01773 12.6043 7.48675 12.4987 6.95052 12.4987C6.41429 12.4987 5.88331 12.6043 5.3879 12.8095C4.89248 13.0147 4.44234 13.3155 4.06317 13.6947C3.684 14.0739 3.38322 14.524 3.17801 15.0194C2.97281 15.5148 2.86719 16.0458 2.86719 16.582ZM28.9672 16.582C28.9672 17.665 29.3974 18.7036 30.1632 19.4694C30.9289 20.2352 31.9676 20.6654 33.0505 20.6654C34.1335 20.6654 35.1721 20.2352 35.9379 19.4694C36.7037 18.7036 37.1339 17.665 37.1339 16.582C37.1339 16.0458 37.0282 15.5148 36.823 15.0194C36.6178 14.524 36.3171 14.0739 35.9379 13.6947C35.5587 13.3155 35.1086 13.0147 34.6131 12.8095C34.1177 12.6043 33.5868 12.4987 33.0505 12.4987C32.5143 12.4987 31.9833 12.6043 31.4879 12.8095C30.9925 13.0147 30.5423 13.3155 30.1632 13.6947C29.784 14.0739 29.4832 14.524 29.278 15.0194C29.0728 15.5148 28.9672 16.0458 28.9672 16.582ZM19.1672 7.4987C18.7252 7.4987 18.3012 7.3231 17.9887 7.01054C17.6761 6.69798 17.5005 6.27406 17.5005 5.83203V2.4987C17.5005 2.05667 17.6761 1.63275 17.9887 1.32019C18.3012 1.00763 18.7252 0.832031 19.1672 0.832031C19.6092 0.832031 20.0331 1.00763 20.3457 1.32019C20.6583 1.63275 20.8339 2.05667 20.8339 2.4987V5.83203C20.8339 6.27406 20.6583 6.69798 20.3457 7.01054C20.0331 7.3231 19.6092 7.4987 19.1672 7.4987ZM28.9505 4.7987C28.6383 4.48828 28.2158 4.31404 27.7755 4.31404C27.3352 4.31404 26.9128 4.48828 26.6005 4.7987L24.2339 7.1487C24.0776 7.30364 23.9537 7.48797 23.869 7.69107C23.7844 7.89417 23.7409 8.11201 23.7409 8.33203C23.7409 8.55205 23.7844 8.76989 23.869 8.97299C23.9537 9.17609 24.0776 9.36043 24.2339 9.51536C24.3888 9.67158 24.5731 9.79557 24.7762 9.88018C24.9793 9.9648 25.1972 10.0084 25.4172 10.0084C25.6372 10.0084 25.8551 9.9648 26.0581 9.88018C26.2612 9.79557 26.4456 9.67158 26.6005 9.51536L28.9505 7.1487C29.2609 6.83643 29.4352 6.41401 29.4352 5.9737C29.4352 5.53339 29.2609 5.11097 28.9505 4.7987ZM12.9172 9.9987C12.6867 10.009 12.4566 9.97141 12.2415 9.88821C12.0263 9.80501 11.8307 9.67805 11.6672 9.51536L9.38385 7.1487C9.15946 6.83105 9.05322 6.44494 9.08352 6.05721C9.11382 5.66948 9.27876 5.30456 9.54978 5.02563C9.82079 4.7467 10.1808 4.57133 10.5675 4.52989C10.9542 4.48845 11.3432 4.58354 11.6672 4.7987L14.1005 7.1487C14.2567 7.30364 14.3807 7.48797 14.4653 7.69107C14.55 7.89417 14.5935 8.11201 14.5935 8.33203C14.5935 8.55205 14.55 8.76989 14.4653 8.97299C14.3807 9.17609 14.2567 9.36043 14.1005 9.51536C13.9448 9.66983 13.7601 9.79204 13.557 9.87498C13.354 9.95792 13.1365 9.99997 12.9172 9.9987Z" fill="#1A4174"/>
<path d="M27.3336 39.1669V27.9502C25.2981 27.7482 23.3648 26.9606 21.7675 25.6828C20.1702 24.405 18.9775 22.6917 18.3336 20.7502L16.9336 16.5335C16.8171 16.1999 16.7747 15.8449 16.8093 15.4933C16.8438 15.1416 16.9546 14.8017 17.1338 14.4972C17.3131 14.1926 17.5565 13.9308 17.8471 13.7298C18.1378 13.5289 18.4687 13.3936 18.8169 13.3335C19.4079 13.2567 20.0071 13.392 20.5076 13.7156C21.0081 14.0391 21.3776 14.5297 21.5503 15.1002L22.9169 19.1835C23.2902 20.3249 24.0154 21.3187 24.9886 22.0224C25.9617 22.726 27.1327 23.1033 28.3336 23.1002H35.5003C36.3843 23.1002 37.2322 23.4514 37.8573 24.0765C38.4824 24.7016 38.8336 25.5495 38.8336 26.4335V39.1669H27.3336ZM15.9003 21.5335V21.3169C15.3582 21.8932 14.7015 22.3496 13.9724 22.6567C13.2433 22.9639 12.4579 23.1149 11.6669 23.1002H4.51693C3.63287 23.1002 2.78503 23.4514 2.1599 24.0765C1.53478 24.7016 1.18359 25.5495 1.18359 26.4335V39.1669H12.6669V27.9502C14.691 27.758 16.6173 26.9886 18.2169 25.7335C17.1909 24.4893 16.4053 23.0651 15.9003 21.5335Z" fill="#1A4174"/>
</svg>
