<svg width="40" height="40" viewBox="0 0 40 40" fill="none" xmlns="http://www.w3.org/2000/svg">
<mask id="mask0_1488_8616" style="mask-type:luminance" maskUnits="userSpaceOnUse" x="0" y="0" width="40" height="40">
<path d="M0 0H40V40H0V0Z" fill="white"/>
</mask>
<g mask="url(#mask0_1488_8616)">
<path d="M18.3752 12.2786L28.4802 6.44531L33.4802 15.1053L23.3752 20.9386C22.9924 21.1597 22.5375 21.2195 22.1105 21.1051C21.6836 20.9907 21.3196 20.7114 21.0985 20.3286L16.0485 23.2453L12.4385 25.3286C12.0557 25.5497 11.6008 25.6095 11.1739 25.4951C10.7469 25.3807 10.3829 25.1014 10.1619 24.7186L7.2752 26.3853C7.08558 26.4965 6.87585 26.569 6.65807 26.5988C6.4403 26.6286 6.21879 26.615 6.00629 26.5588C5.79379 26.5026 5.5945 26.405 5.4199 26.2715C5.2453 26.1379 5.09883 25.9712 4.98893 25.7809C4.87902 25.5905 4.80786 25.3803 4.77953 25.1623C4.7512 24.9444 4.76626 24.7229 4.82385 24.5108C4.88144 24.2987 4.98042 24.1001 5.11509 23.9264C5.24976 23.7526 5.41746 23.6073 5.60853 23.4986L8.4952 21.832C8.2742 21.4492 8.2143 20.9943 8.3287 20.5673C8.4431 20.1404 8.72241 19.7763 9.1052 19.5553L17.7652 14.5553C17.5442 14.1725 17.4843 13.7176 17.5987 13.2906C17.7131 12.8637 17.9924 12.4997 18.3752 12.2786Z" fill="#1A4174"/>
<path d="M27.6473 5L28.4806 6.44333M28.4806 6.44333L18.3773 12.2767C17.9945 12.4977 17.7152 12.8617 17.6008 13.2887C17.4864 13.7156 17.5463 14.1705 17.7673 14.5533M28.4806 6.44333L33.4806 15.1033M34.314 16.5467L33.4806 15.1033M33.4806 15.1033L23.3773 20.9367C22.9945 21.1577 22.5396 21.2176 22.1126 21.1032C21.6857 20.9888 21.3217 20.7095 21.1006 20.3267M17.7673 14.5533L9.1073 19.5533C8.72451 19.7744 8.4452 20.1384 8.3308 20.5653C8.2164 20.9923 8.27629 21.4472 8.4973 21.83M17.7673 14.5533L21.1006 20.3267M21.1006 20.3267L16.0506 23.2433L11.829 33.3333M8.4973 21.83L5.61063 23.4967C5.22784 23.7177 4.94853 24.0817 4.83413 24.5087C4.71974 24.9356 4.77963 25.3905 5.00063 25.7733C5.22165 26.1561 5.58568 26.4354 6.01263 26.5498C6.43959 26.6642 6.8945 26.6043 7.2773 26.3833L10.164 24.7167M8.4973 21.83L10.164 24.7167M10.164 24.7167C10.385 25.0995 10.749 25.3788 11.176 25.4932C11.6029 25.6076 12.0578 25.5477 12.4406 25.3267L16.049 23.2433L21.6673 33.3333" stroke="#1A4174" stroke-width="3.33333" stroke-linecap="round" stroke-linejoin="round"/>
</g>
</svg>
